<svg id="Layer_1" data-name="Layer 1" xmlns="http://www.w3.org/2000/svg" viewBox="0 0 1115 291"><defs><style>.cls-1,.cls-5{fill:#264630;}.cls-2,.cls-4{fill:none;}.cls-2{stroke:#264630;stroke-miterlimit:10;stroke-width:0.25px;}.cls-3{fill:#2e4930;}.cls-5{font-size:24px;font-family:MyriadPro-Regular, Myriad Pro;}.cls-6{letter-spacing:-0.03em;}.cls-7{letter-spacing:-0.01em;}.cls-8{letter-spacing:-0.01em;}.cls-9{letter-spacing:-0.01em;}.cls-10{letter-spacing:-0.04em;}.cls-11{letter-spacing:0em;}.cls-12{letter-spacing:-0.01em;}.cls-13{letter-spacing:0em;}.cls-14{letter-spacing:0em;}</style></defs><path class="cls-1" d="M26.79,206V406h81.3a27.38,27.38,0,0,1-3.39-5.75H32.55V211.79H221V400.28H148.45a37,37,0,0,0,6.06,1.7h0v4h72.3V206Z" transform="translate(-19 -201)"/><path class="cls-1" d="M206,274.48c-2.37-15.46-10.71-26.67-25.44-32.07S152,239.63,140.83,251c-10.08,10.27-12.93,22.89-7.77,36.42,4.78,12.52,14.36,19.45,27.88,20.41,21.15,1.5,36.31-20,27.56-39a23.92,23.92,0,0,0-22-13.6c-9.31.34-16.62,5.63-19.6,14.66-2.2,6.68-.61,12.82,4.13,17.91,4.19,4.49,9.61,5.74,15.51,4.29,8.15-2,12.06-12.37,7.11-18.52a7.75,7.75,0,0,0-8.67-2.71c-1.53.46-2.73,2.54-3.68,4.13-.36.6.16,2.17.78,2.76.39.37,2,0,2.6-.51,2.54-2,4-.41,4.34,1.68a6.67,6.67,0,0,1-1.63,4.91c-3.35,3.64-9.3,2.55-12.44-2-4.72-6.84-.71-16.59,7.92-19.12,6.67-2,12.27.13,16.69,5.13,5.09,5.75,6,12.6,3.19,19.56-3.81,9.34-11.31,13.85-21.24,13.62s-16.92-5.7-21.2-14.34c-5.43-11-2.25-24.47,7.18-32.52a30.49,30.49,0,0,1,37-2.11c14,9.69,18.87,27,12,42.36s-25.45,25-41.09,21.45C142.81,313,133.59,306,127.2,294.9,119.38,281.32,107.8,273.55,92,272,70,269.74,45.81,285.79,47,315c1.07,25.25,26.79,41.24,50.22,32.06,13.4-5.25,22-20.13,19.91-34.71-1.67-11.7-11-24.58-27.6-25.24-10.11-.42-18.17,3.45-23.49,12-5.17,8.29-5.43,17.12-.21,25.51,4.09,6.58,10.37,10.26,18.2,10,7.46-.28,13.41-3.66,16.65-10.75,5-10.9-2.73-22.75-14.08-21.51-4.34.48-7.88,2.89-8.69,7.21-.47,2.52.51,5.69,1.81,8,.69,1.22,3.49,1.7,5.32,1.66,1,0,2-1.81,3-2.81l-1.73-.15c-.76-1.69-2.37-3.52-2.1-5,.44-2.48,4.6-3.21,7.2-1.5a9.46,9.46,0,0,1,2.76,2.84c2.34,3.82,1.49,8.44-2,11.68-7.33,6.8-19.34,3-22.29-7.32a16.58,16.58,0,0,1,5.21-17.9c6-5.33,13.06-6.81,20.62-3.88,9.34,3.62,14.19,10.94,14.84,20.66s-3.83,17.19-11.7,22.47c-10.45,7-23.65,6.06-33.7-2-9.76-7.84-13.93-22.61-9.68-34.28a35.45,35.45,0,0,1,58.6-13,39,39,0,0,1,6.51,47.72,57.66,57.66,0,0,0-6.41,16,.38.38,0,0,0,0-.1s-10.73,29.47-.62,47.65h33.22c4.68,0,9.28,0,9.56,0-5.38-.91-13.53-4.8-13.53-4.8-13.83-5.71-21.61-16.34-22.62-31.09-1-15.17,5.64-27,18.42-35.24,8.38-5.41,17.82-5.86,27.44-6.26C190.45,321.91,209.65,298.46,206,274.48Zm-73.65,50c.3-4.24.52-7.39.79-11.2l9.49,5.9Z" transform="translate(-19 -201)"/><path class="cls-1" d="M117.49,406h38.8v-5.7H113.53A28.33,28.33,0,0,0,117.49,406Z" transform="translate(-19 -201)"/><path class="cls-1" d="M285.94,371.71c.06.54-.18.84-.48.84s-.55-.18-.72-.66c-2.1-5.41-3.55-6.73-8.41-6.73h-7.09a1.51,1.51,0,0,0-1.5,1.39L267.68,378a.41.41,0,0,0,.43.43l11.34-.3a.57.57,0,0,1,.61.6v2.52a.57.57,0,0,1-.61.6l-11.41-.3c-.23,0-.36.24-.36.48l.06,12.55a2.68,2.68,0,0,0,2,2.71l1.87.35c.48.12,1,.36,1,.73s-.42.42-1,.42H260.84c-.54,0-1-.13-1-.42s.42-.61,1-.73a2.52,2.52,0,0,0,1.86-2.7l.06-14.24L262.7,367a2.56,2.56,0,0,0-2-2.7l-2.47-.35c-.54-.07-.95-.37-.95-.67s.41-.48.95-.48h26.49a.65.65,0,0,1,.66.72Z" transform="translate(-19 -201)"/><path class="cls-1" d="M320.79,398.8H306.86c-.53,0-1-.13-1-.42s.43-.67,1-.73l2.47-.35a2.58,2.58,0,0,0,2-2.71l.07-13.88L311.3,367a2.56,2.56,0,0,0-2-2.7l-2.47-.35c-.53-.07-1-.37-1-.67s.43-.48,1-.48h13.93c.55,0,1,.12,1,.42s-.42.66-1,.73l-2.46.35a2.56,2.56,0,0,0-2,2.7l-.06,13.75.06,13.88a2.58,2.58,0,0,0,2,2.71l2.46.35c.55.06,1,.36,1,.67S321.34,398.8,320.79,398.8Z" transform="translate(-19 -201)"/><path class="cls-1" d="M377.75,363.91l-1.86.35a2.54,2.54,0,0,0-2,2.65l-.18,13.93.11,17.83c0,.43-.23.73-.6.73h-.53A.92.92,0,0,1,372,399l-20.83-27.38c-.3-.36-.73-.18-.73.18L351,394c0,2.41.3,3.12.72,3.54s.78.48.78.85-.24.42-.78.42H343c-.54,0-1-.13-1-.42s.48-.61,1-.73l1.86-.35a2.68,2.68,0,0,0,2-2.71l.54-22.22v-5c0-.95-.3-2.57-1.38-2.87l-2.16-.55c-.48-.12-1.09-.42-1.09-.78s.43-.42,1-.42h5.76a1.36,1.36,0,0,1,1.15.48l18.73,24.63c.42.53,1.08.3,1.08-.25l.06-6.78L370.36,367a2.56,2.56,0,0,0-2-2.7l-2.16-.35c-.54-.13-1-.37-1-.73s.42-.42,1-.42h11.53c.54,0,1,.12,1,.42S378.29,363.78,377.75,363.91Z" transform="translate(-19 -201)"/><path class="cls-1" d="M431.65,398.8H419.1c-.54,0-1-.13-1-.42s.42-.61,1-.73l1.86-.35a1.63,1.63,0,0,0,1.44-1.57,1.43,1.43,0,0,0-.12-.54l-2.28-6.3a.79.79,0,0,0-.72-.49h-13a.72.72,0,0,0-.72.49L403.25,396a6.36,6.36,0,0,0-.25,1,.86.86,0,0,0,.43.78c.3.18.47.3.47.55s-.47.42-1,.42H396c-.54,0-1-.13-1-.42s.48-.61,1-.73l1.26-.35a2.34,2.34,0,0,0,1.62-1.27l12.73-33.27c.12-.42.9-.6,1.69-.6s1.55.25,1.73.6l13.4,33.33a2.15,2.15,0,0,0,1.62,1.26l1.62.3c.48.06,1,.36,1,.73S432.13,398.8,431.65,398.8Zm-18.8-29.61a.31.31,0,0,0-.6,0l-5.46,16.15a.42.42,0,0,0,.42.6H418.5a.41.41,0,0,0,.36-.6Z" transform="translate(-19 -201)"/><path class="cls-1" d="M484.77,363.91l-1.87.35a2.54,2.54,0,0,0-2,2.65l-.18,13.93.12,17.83c0,.43-.24.73-.6.73h-.54A.9.9,0,0,1,479,399l-20.84-27.38c-.3-.36-.72-.18-.72.18L458,394c.06,2.41.3,3.12.72,3.54s.78.48.78.85-.24.42-.78.42h-8.65c-.54,0-.95-.13-.95-.42s.47-.61.95-.73l1.87-.35a2.68,2.68,0,0,0,2-2.71l.54-22.22v-5c0-.95-.3-2.57-1.39-2.87L450.9,364c-.48-.12-1.09-.42-1.09-.78s.42-.42,1-.42h5.77a1.34,1.34,0,0,1,1.14.48l18.73,24.63c.43.53,1.09.3,1.09-.25l.06-6.78L477.38,367a2.55,2.55,0,0,0-2-2.7l-2.16-.35c-.54-.13-1-.37-1-.73s.42-.42,1-.42h11.54c.54,0,1,.12,1,.42S485.31,363.78,484.77,363.91Z" transform="translate(-19 -201)"/><path class="cls-1" d="M534,397.53c0,.48-.48.72-.9.79-2.28.23-6.24,1.08-9.61,1.08-8.4,0-15.79-5.89-15.79-18.69,0-11.46,6.91-18.55,15.14-18.55,3.36,0,6.9.6,10.26.85a.87.87,0,0,1,.72.77v9.31c0,.55-.23.85-.48.85s-.47-.25-.6-.67c-1.44-5.94-3.78-8.59-9.78-8.59-8.53,0-9.55,10.63-9.55,17,0,6.54,2,15.2,10.21,15.2,6.72,0,8.28-2.71,9.66-8.29a.64.64,0,0,1,.61-.55c.3,0,.53.18.53.73Z" transform="translate(-19 -201)"/><path class="cls-1" d="M572,398.8H558c-.54,0-1-.13-1-.42s.42-.67,1-.73l2.46-.35a2.58,2.58,0,0,0,2-2.71l.06-13.88L562.47,367a2.56,2.56,0,0,0-2-2.7l-2.46-.35c-.54-.07-1-.37-1-.67s.42-.48,1-.48H572c.54,0,1,.12,1,.42s-.42.66-1,.73l-2.46.35a2.55,2.55,0,0,0-2,2.7l0,13.75,0,13.88a2.57,2.57,0,0,0,2,2.71l2.46.35c.54.06,1,.36,1,.67S572.5,398.8,572,398.8Z" transform="translate(-19 -201)"/><path class="cls-1" d="M627.6,398.8H615c-.55,0-1-.13-1-.42s.41-.61,1-.73l1.87-.35a1.63,1.63,0,0,0,1.43-1.57,1.43,1.43,0,0,0-.12-.54l-2.28-6.3a.79.79,0,0,0-.72-.49h-13a.71.71,0,0,0-.71.49L599.19,396a6,6,0,0,0-.24,1,.87.87,0,0,0,.41.78c.3.18.49.3.49.55s-.49.42-1,.42h-6.9c-.54,0-1-.13-1-.42s.48-.61,1-.73l1.26-.35a2.37,2.37,0,0,0,1.63-1.27l12.73-33.27c.11-.42.9-.6,1.68-.6s1.56.25,1.73.6l13.4,33.33a2.15,2.15,0,0,0,1.62,1.26l1.63.3c.47.06.95.36.95.73S628.07,398.8,627.6,398.8Zm-18.81-29.61a.31.31,0,0,0-.6,0l-5.45,16.15a.41.41,0,0,0,.41.6h11.29a.41.41,0,0,0,.35-.6Z" transform="translate(-19 -201)"/><path class="cls-1" d="M672.77,398.13a.82.82,0,0,1-.82.67H648.58c-.54,0-1-.13-1-.42s.43-.61,1-.73a2.52,2.52,0,0,0,1.86-2.7l.06-14.24-.06-13.8a2.5,2.5,0,0,0-2-2.65l-2.46-.35c-.54-.07-1-.37-1-.67s.42-.48,1-.48h13.5c.54,0,1,.12,1,.42s-.48.66-1,.73l-2,.35a2.59,2.59,0,0,0-2,2.7l-.06,13.75.06,14.6a1.24,1.24,0,0,0,1.25,1.09l7.52-.13c6.24-.12,7.39-2.94,8.64-7.56a1,1,0,0,1,.85-.79c.35,0,.65.37.47,1.39Z" transform="translate(-19 -201)"/><path class="cls-1" d="M736.66,383.42h-3.85a1.17,1.17,0,0,0-1.14,1l.06,10.15a2.68,2.68,0,0,0,2,2.71l1.87.35c.47.12,1,.36,1,.73s-.43.42-1,.42H724.82c-.54,0-1-.13-1-.42s.41-.61,1-.73a2.51,2.51,0,0,0,1.86-2.7l.07-14.77-.07-13.27a2.5,2.5,0,0,0-2-2.65l-2.47-.35c-.54-.07-1-.37-1-.67s.42-.48,1-.48h16.4c6.84,0,12.73,2.7,12.73,10C751.37,378.79,746.57,383.42,736.66,383.42Zm-.19-18.26h-3.3a1.47,1.47,0,0,0-1.5,1.39v13.51a1.22,1.22,0,0,0,1.14,1.08h3.06c5.59,0,10.16-1.62,10.16-8.53C746,367.51,743.26,365.16,736.47,365.16Z" transform="translate(-19 -201)"/><path class="cls-1" d="M799.19,398.13a.83.83,0,0,1-.83.67H775c-.54,0-1-.13-1-.42s.43-.61,1-.73a2.52,2.52,0,0,0,1.86-2.7l.06-14.24-.06-13.8a2.5,2.5,0,0,0-2-2.65l-2.46-.35c-.55-.07-1-.37-1-.67s.41-.48,1-.48h13.5c.54,0,1,.12,1,.42s-.49.66-1,.73l-2,.35a2.6,2.6,0,0,0-2.05,2.7l0,13.75,0,14.6a1.25,1.25,0,0,0,1.26,1.09l7.52-.13c6.24-.12,7.38-2.94,8.64-7.56a1,1,0,0,1,.84-.79c.36,0,.66.37.48,1.39Z" transform="translate(-19 -201)"/><path class="cls-1" d="M854.36,398.8H841.8c-.54,0-1-.13-1-.42s.42-.61,1-.73l1.87-.35a1.63,1.63,0,0,0,1.43-1.57,1.43,1.43,0,0,0-.12-.54l-2.28-6.3a.79.79,0,0,0-.72-.49H829a.71.71,0,0,0-.71.49L826,396a6,6,0,0,0-.24,1,.87.87,0,0,0,.41.78c.3.18.49.3.49.55s-.49.42-1,.42h-6.9c-.54,0-1-.13-1-.42s.48-.61,1-.73l1.26-.35a2.35,2.35,0,0,0,1.63-1.27l12.73-33.27c.11-.42.9-.6,1.68-.6s1.56.25,1.73.6l13.4,33.33a2.15,2.15,0,0,0,1.62,1.26l1.63.3c.47.06.95.36.95.73S854.83,398.8,854.36,398.8Zm-18.81-29.61a.3.3,0,0,0-.59,0l-5.46,16.15a.41.41,0,0,0,.41.6H841.2a.41.41,0,0,0,.36-.6Z" transform="translate(-19 -201)"/><path class="cls-1" d="M907.48,363.91l-1.87.35a2.54,2.54,0,0,0-2,2.65l-.19,13.93.11,17.83c0,.43-.22.73-.6.73h-.52a.92.92,0,0,1-.73-.43l-20.83-27.38c-.3-.36-.73-.18-.73.18l.54,22.22c.06,2.41.3,3.12.73,3.54s.77.48.77.85-.24.42-.77.42h-8.66c-.54,0-1-.13-1-.42s.49-.61,1-.73l1.87-.35a2.68,2.68,0,0,0,2-2.71l.55-22.22v-5c0-.95-.3-2.57-1.39-2.87L873.6,364c-.48-.12-1.08-.42-1.08-.78s.43-.42,1-.42h5.76a1.34,1.34,0,0,1,1.14.48l18.73,24.63c.43.53,1.09.3,1.09-.25l0-6.78L900.09,367a2.56,2.56,0,0,0-2-2.7l-2.16-.35c-.54-.13-1-.37-1-.73s.43-.42,1-.42h11.53c.54,0,1,.12,1,.42S908,363.78,907.48,363.91Z" transform="translate(-19 -201)"/><path class="cls-1" d="M963.72,363.91l-1.88.35a2.54,2.54,0,0,0-2,2.65l-.18,13.93.11,17.83c0,.43-.23.73-.6.73h-.53a.93.93,0,0,1-.73-.43l-20.83-27.38c-.3-.36-.73-.18-.73.18l.55,22.22c.05,2.41.3,3.12.73,3.54s.77.48.77.85-.25.42-.77.42H929c-.55,0-1-.13-1-.42s.49-.61,1-.73l1.87-.35a2.69,2.69,0,0,0,2-2.71l.54-22.22v-5c0-.95-.3-2.57-1.38-2.87l-2.16-.55c-.49-.12-1.09-.42-1.09-.78s.43-.42,1-.42h5.75a1.36,1.36,0,0,1,1.15.48l18.73,24.63c.43.53,1.08.3,1.08-.25l.06-6.78L956.33,367a2.55,2.55,0,0,0-2-2.7l-2.15-.35c-.55-.13-1-.37-1-.73s.43-.42,1-.42h11.53c.54,0,.95.12.95.42S964.26,363.78,963.72,363.91Z" transform="translate(-19 -201)"/><path class="cls-1" d="M1000.08,398.8H986.15c-.55,0-1-.13-1-.42s.41-.67,1-.73l2.46-.35a2.58,2.58,0,0,0,2-2.71l.06-13.88L990.59,367a2.56,2.56,0,0,0-2-2.7l-2.46-.35c-.55-.07-1-.37-1-.67s.41-.48,1-.48h13.93c.54,0,1,.12,1,.42s-.42.66-1,.73l-2.46.35a2.56,2.56,0,0,0-2,2.7l0,13.75,0,13.88a2.58,2.58,0,0,0,2,2.71l2.46.35c.54.06,1,.36,1,.67S1000.62,398.8,1000.08,398.8Z" transform="translate(-19 -201)"/><path class="cls-1" d="M1057,363.91l-1.87.35a2.54,2.54,0,0,0-2,2.65l-.19,13.93.11,17.83c0,.43-.22.73-.6.73H1052a.92.92,0,0,1-.73-.43l-20.83-27.38c-.31-.36-.73-.18-.73.18l.54,22.22c.06,2.41.3,3.12.73,3.54s.77.48.77.85-.24.42-.77.42h-8.66c-.54,0-1-.13-1-.42s.49-.61,1-.73l1.87-.35a2.68,2.68,0,0,0,2-2.71l.55-22.22v-5c0-.95-.3-2.57-1.39-2.87l-2.16-.55c-.48-.12-1.08-.42-1.08-.78s.43-.42,1-.42h5.76a1.33,1.33,0,0,1,1.14.48l18.73,24.63c.43.53,1.09.3,1.09-.25l0-6.78-.17-13.88a2.56,2.56,0,0,0-2-2.7l-2.16-.35c-.54-.13-1-.37-1-.73s.43-.42,1-.42H1057c.54,0,1,.12,1,.42S1057.57,363.78,1057,363.91Z" transform="translate(-19 -201)"/><path class="cls-1" d="M1111.89,382.34l-1.87.36a2.56,2.56,0,0,0-2,2.7v11.11a2.42,2.42,0,0,0,.47,1.62.61.61,0,0,1,.3.54.48.48,0,0,1-.54.55,2.56,2.56,0,0,1-.77-.19l-3.73-1.62a1.18,1.18,0,0,0-1.39.12,12,12,0,0,1-6.54,1.87c-8.46,0-15.92-5.89-15.92-18.69,0-11.46,6.92-18.55,15.15-18.55,3.36,0,6.9.6,10.26.85a.87.87,0,0,1,.72.77v9.31c0,.55-.24.85-.48.85s-.47-.25-.6-.67c-1.44-5.94-3.79-8.59-9.79-8.59-8.53,0-9.54,10.63-9.54,17,0,6.54,2.21,15.07,10.44,15.07,3.3,0,7.5-2.58,7.5-6.24v-5.89a2.9,2.9,0,0,0-.65-2.16c-.42-.42-.78-.48-.78-.84s.23-.42.78-.42h9c.48,0,.78.3.78.6S1112.42,382.22,1111.89,382.34Z" transform="translate(-19 -201)"/><line class="cls-2" x1="236.74" y1="134.01" x2="1090.99" y2="134.01"/><path class="cls-3" d="M286,260.68h45.27V232.8c0-2.29,0-4.16-.14-5.6a18.16,18.16,0,0,0-.54-3.55,5.2,5.2,0,0,0-1.18-2.23,9.15,9.15,0,0,0-2.09-1.55,13.45,13.45,0,0,0-6.53-1.72h-3.45v-2.66H359l-.07,2.66h-3.44a15.62,15.62,0,0,0-2.88.29,12.12,12.12,0,0,0-2.88.93,9.38,9.38,0,0,0-2.4,1.62,6,6,0,0,0-1.54,2.33q-.79,2.37-.79,9.48v62.87c0,2.31,0,4.17.14,5.61a18.53,18.53,0,0,0,.54,3.56,5.17,5.17,0,0,0,1.15,2.19,8.31,8.31,0,0,0,2.05,1.5,13.32,13.32,0,0,0,6.61,1.73H359v2.66H317.31v-2.66h3.45q5.88,0,8.69-3.52,1.79-2.24,1.79-11.07V266H286v29.67c0,2.31.06,4.17.15,5.61a16.34,16.34,0,0,0,.54,3.52,5.33,5.33,0,0,0,1.18,2.19,8.65,8.65,0,0,0,2.09,1.54,13.2,13.2,0,0,0,6.54,1.73H300v2.66H258.24v-2.66h3.45q6.1,0,8.77-3.52,1.73-2.24,1.73-11.07V232.8c0-2.29-.06-4.16-.15-5.6a17.51,17.51,0,0,0-.53-3.55,5.53,5.53,0,0,0-1.16-2.23,8.08,8.08,0,0,0-2.05-1.55,13.61,13.61,0,0,0-6.61-1.72h-3.45v-2.66H300v2.66h-3.52a15.27,15.27,0,0,0-2.91.29,11.11,11.11,0,0,0-2.8.93,9.21,9.21,0,0,0-2.37,1.62,5.89,5.89,0,0,0-1.55,2.33c-.57,1.53-.87,4.7-.87,9.48Z" transform="translate(-19 -201)"/><path class="cls-3" d="M414.76,310.26v2.66H373v-2.66h3.45q6.1,0,8.77-3.52,1.72-2.24,1.73-11.07V232.73c0-2.29-.06-4.16-.15-5.6a16.76,16.76,0,0,0-.54-3.55,5.25,5.25,0,0,0-1.14-2.2,9.32,9.32,0,0,0-2.06-1.51,13.61,13.61,0,0,0-6.61-1.72H373v-2.66h41.75v2.66h-3.53q-6,0-8.69,3.52c-1.19,1.48-1.8,5.17-1.8,11.06v62.94c0,2.31.06,4.17.15,5.61a16.34,16.34,0,0,0,.54,3.52,5.11,5.11,0,0,0,1.18,2.19,8.65,8.65,0,0,0,2.09,1.54,13.19,13.19,0,0,0,6.53,1.73Z" transform="translate(-19 -201)"/><path class="cls-3" d="M493.67,263.2a39.37,39.37,0,0,1,10.17,3.52A24.21,24.21,0,0,1,510.7,272a19.36,19.36,0,0,1,3.88,6.65,23.68,23.68,0,0,1,1.23,7.65,22.21,22.21,0,0,1-1.2,7.15,24.68,24.68,0,0,1-3.41,6.68,28.22,28.22,0,0,1-5.43,5.68,27.47,27.47,0,0,1-7.21,4.13q-8,3-24.43,3h-46v-2.66h3.66q6,0,8.77-3.88,1.65-2.52,1.65-10.71V232.73q0-9-2.09-11.42c-1.86-2.1-4.65-3.16-8.33-3.16h-3.66v-2.66h42.1q11.78,0,18.89,1.72a35.83,35.83,0,0,1,9.53,3.67,27.58,27.58,0,0,1,6.93,5.53,22,22,0,0,1,4.23,7,22.81,22.81,0,0,1,1.45,8.08,20.9,20.9,0,0,1-4.46,13.11Q502.37,260.4,493.67,263.2ZM456,259.32a76.89,76.89,0,0,0,13.58,1q10.56,0,15.73-2.23a17.36,17.36,0,0,0,4.71-2.94,17.56,17.56,0,0,0,3.42-4,18.93,18.93,0,0,0,2.08-4.81,20.45,20.45,0,0,0,.71-5.4,18.4,18.4,0,0,0-7-14.51,26.46,26.46,0,0,0-8.55-4.45A38.29,38.29,0,0,0,469,220.3,48,48,0,0,0,456,221.88Zm0,46.56a72,72,0,0,0,16.45,1.94A38.26,38.26,0,0,0,484,306.24a25.14,25.14,0,0,0,8.38-4.35,18,18,0,0,0,5.07-6.47,19.1,19.1,0,0,0,1.68-7.94,21,21,0,0,0-1.83-8.73,18.78,18.78,0,0,0-5.61-7,28,28,0,0,0-9.48-4.7,46.79,46.79,0,0,0-13.47-1.73q-4.51,0-7.65.14a39.17,39.17,0,0,0-5.07.51Z" transform="translate(-19 -201)"/><path class="cls-3" d="M562,220.81v38.51h21.41a28.6,28.6,0,0,0,7.58-.83,9,9,0,0,0,6.86-7,36.87,36.87,0,0,0,.86-6.33h2.66v33.92h-2.66c-.34-2.4-.67-4.35-1-5.86a15.42,15.42,0,0,0-1-3.27,8.28,8.28,0,0,0-1.65-2.26,9.29,9.29,0,0,0-2.59-1.69,15.05,15.05,0,0,0-3.8-1.08,33.55,33.55,0,0,0-5.25-.35H562v32.11c0,4.26.19,6.9.57,7.9a6.52,6.52,0,0,0,.72,1.22,3.42,3.42,0,0,0,1.25,1,8.29,8.29,0,0,0,2.16.6,20.8,20.8,0,0,0,3.35.22h16.51c2.84,0,5.19-.08,7.09-.25a26.36,26.36,0,0,0,4.95-.86,12.87,12.87,0,0,0,3.74-1.73,27.5,27.5,0,0,0,3.41-2.84,35.91,35.91,0,0,0,4.53-5.53,71.79,71.79,0,0,0,4.59-7.9h2.88l-8.4,24.43H534.22v-2.66h3.45a14.8,14.8,0,0,0,2.88-.29,11.32,11.32,0,0,0,2.83-.93,10,10,0,0,0,2.41-1.62,5.19,5.19,0,0,0,1.51-2.27c.57-1.47.86-4.61.86-9.4v-63.3c0-6.14-.62-9.94-1.87-11.43-1.73-1.91-4.59-2.87-8.62-2.87h-3.45v-2.66h75.09v21.34h-1.73c-.53-2.59-1.06-4.71-1.58-6.39a19.14,19.14,0,0,0-1.8-4.17,9,9,0,0,0-2.3-2.62,15.49,15.49,0,0,0-3.09-1.77q-2.94-1.06-10.13-1.07Z" transform="translate(-19 -201)"/><path class="cls-3" d="M727.88,312.92h-26l-33-45.56c-1.24.06-2.36.09-3.34.11s-1.85,0-2.62,0-1.3,0-2,0-1.45-.05-2.23-.11v28.31q0,9.21,2,11.42c1.82,2.12,4.55,3.17,8.18,3.17h3.81v2.66H631v-2.66h3.67c4.08,0,7-1.34,8.83-4Q645,304,645,295.67V232.73q0-9.19-2-11.42c-1.86-2.1-4.64-3.16-8.33-3.16H631v-2.66h35.5q15.38,0,22.85,2.3a24.89,24.89,0,0,1,6.86,3.23,26.24,26.24,0,0,1,5.61,5.11,24,24,0,0,1,3.81,6.6,22.11,22.11,0,0,1,1.4,7.84,24.25,24.25,0,0,1-1.45,8.44,21.2,21.2,0,0,1-4.41,7.14,27.26,27.26,0,0,1-7.52,5.61A43,43,0,0,1,683,265.5l20.12,27.95q7,9.69,11.86,12.79a30.48,30.48,0,0,0,12.92,4Zm-69.19-50.08c.92,0,1.71,0,2.38,0l1.65,0A41.79,41.79,0,0,0,675,261.29a25.24,25.24,0,0,0,8.8-4.49,18.19,18.19,0,0,0,5.28-6.79,20.42,20.42,0,0,0,1.76-8.51,22.28,22.28,0,0,0-1.5-8.3,19,19,0,0,0-4.27-6.5,19.54,19.54,0,0,0-6.62-4.24A22.79,22.79,0,0,0,670,221a42.57,42.57,0,0,0-4.89.33q-2.8.32-6.4,1Z" transform="translate(-19 -201)"/><path class="cls-3" d="M732,215.49h26.43L818,288.56V232.38q0-9-2-11.21c-1.82-2-4.62-3-8.4-3h-3.38v-2.66h33.91v2.66h-3.45c-4.12,0-7,1.25-8.76,3.73q-1.59,2.24-1.58,10.5V314.5h-2.59L757.52,236v60q0,9,1.94,11.21c1.78,2,4.57,3,8.41,3h3.44v2.66h-33.9v-2.66h3.37c4.17,0,7.1-1.24,8.83-3.74q1.59-2.22,1.58-10.49V228.28c-1.43-1.68-2.63-3-3.58-4a23.4,23.4,0,0,0-2.73-2.48,11.94,11.94,0,0,0-2.81-1.58c-1-.41-2.25-.88-3.74-1.4a22.42,22.42,0,0,0-6.31-.65Z" transform="translate(-19 -201)"/><path class="cls-3" d="M893,310.26v2.66H851.24v-2.66h3.45c4.07,0,7-1.18,8.76-3.52q1.72-2.24,1.73-11.07V232.73c0-2.29-.06-4.16-.15-5.6a16.76,16.76,0,0,0-.54-3.55,5.14,5.14,0,0,0-1.14-2.2,8.86,8.86,0,0,0-2.06-1.51,13.55,13.55,0,0,0-6.6-1.72h-3.45v-2.66H893v2.66h-3.52q-6,0-8.69,3.52c-1.19,1.48-1.8,5.17-1.8,11.06v62.94c0,2.31,0,4.17.14,5.61a16.27,16.27,0,0,0,.55,3.52,5,5,0,0,0,1.18,2.19,8.39,8.39,0,0,0,2.08,1.54,13.22,13.22,0,0,0,6.54,1.73Z" transform="translate(-19 -201)"/><path class="cls-3" d="M971.25,280.3H933.53l-6.61,15.37q-2.45,5.61-2.45,8.48a5.6,5.6,0,0,0,.4,2.12,4.1,4.1,0,0,0,1.62,1.8,10.73,10.73,0,0,0,3.44,1.36,38.74,38.74,0,0,0,5.83.83v2.66H905.08v-2.66c4-.72,6.65-1.65,7.89-2.8a21.67,21.67,0,0,0,3.85-5.21,89.56,89.56,0,0,0,4.28-8.8l34.28-80.19h2.51l33.91,81.05a70,70,0,0,0,3.84,8.08,19.29,19.29,0,0,0,3.63,4.74,10.28,10.28,0,0,0,4.06,2.34,22.08,22.08,0,0,0,5.21.79v2.66H970.1v-2.66a24.45,24.45,0,0,0,4.82-.65,9.35,9.35,0,0,0,3.05-1.29,4.75,4.75,0,0,0,1.58-1.8,5.38,5.38,0,0,0,.46-2.22,12.59,12.59,0,0,0-.68-4.06q-.75-2.48-2.18-5.93Zm-2-5.32-16.53-39.37-17,39.37Z" transform="translate(-19 -201)"/><path class="cls-3" d="M1015.61,215.49h26.44l59.56,73.07V232.38q0-9-2-11.21c-1.82-2-4.62-3-8.4-3h-3.38v-2.66h33.92v2.66h-3.45q-6.18,0-8.77,3.73-1.58,2.24-1.58,10.5V314.5h-2.58L1041.11,236v60q0,9,1.94,11.21c1.78,2,4.57,3,8.41,3h3.44v2.66H1021v-2.66h3.37q6.26,0,8.83-3.74,1.59-2.22,1.58-10.49V228.28c-1.43-1.68-2.63-3-3.58-4a21.89,21.89,0,0,0-2.73-2.48,12.08,12.08,0,0,0-2.8-1.58c-1-.41-2.25-.88-3.74-1.4a22.5,22.5,0,0,0-6.32-.65Z" transform="translate(-19 -201)"/><rect class="cls-4" width="1115" height="219"/><text class="cls-5" transform="translate(218 285)"><tspan class="cls-6">W</tspan><tspan x="19.51" y="0">e a</tspan><tspan class="cls-7" x="48.19" y="0">r</tspan><tspan x="55.8" y="0">e n</tspan><tspan class="cls-8" x="86.23" y="0">o</tspan><tspan x="99.24" y="0">w close</tspan><tspan class="cls-9" x="173.11" y="0">d</tspan><tspan x="186.41" y="0">.</tspan><tspan class="cls-10" x="191.37" y="0"> </tspan><tspan class="cls-8" x="195.48" y="0">T</tspan><tspan class="cls-11" x="207.24" y="0">hank </tspan><tspan class="cls-7" x="261.79" y="0">y</tspan><tspan x="272.85" y="0">ou </tspan><tspan class="cls-12" x="304.34" y="0">f</tspan><tspan x="311.04" y="0">or </tspan><tspan class="cls-7" x="337.15" y="0">y</tspan><tspan x="348.21" y="0">our trust and </tspan><tspan class="cls-12" x="482.61" y="0">f</tspan><tspan x="489.31" y="0">or being our clei</tspan><tspan class="cls-13" x="651.93" y="0">n</tspan><tspan class="cls-14" x="665.15" y="0">t</tspan><tspan x="673.02" y="0">.</tspan></text></svg>